<mxfile host="app.diagrams.net" agent="Mozilla/5.0 (Windows NT 10.0; Win64; x64) AppleWebKit/537.36 (KHTML, like Gecko) Chrome/127.0.0.0 Safari/537.36" version="24.7.6">
  <diagram id="i-E6FIU5yWdM-zQShbKv" name="PÃ¡gina-1">
    <mxGraphModel dx="2000" dy="579" grid="0" gridSize="10" guides="1" tooltips="1" connect="1" arrows="1" fold="1" page="1" pageScale="1" pageWidth="827" pageHeight="1169" math="0" shadow="0">
      <root>
        <mxCell id="0" />
        <mxCell id="1" parent="0" />
        <mxCell id="idi1RiN6j2gegVWpK_ZE-1" value="&lt;p style=&quot;margin: 4px 0px 0px; text-align: center; font-size: 16px;&quot;&gt;&lt;font face=&quot;Verdana&quot; style=&quot;font-size: 16px;&quot;&gt;&lt;i style=&quot;&quot;&gt;&amp;lt;&amp;lt;Interface&amp;gt;&amp;gt;&lt;/i&gt;&lt;br&gt;&lt;b style=&quot;&quot;&gt;AparelhoTelefonico&lt;/b&gt;&lt;/font&gt;&lt;/p&gt;&lt;hr size=&quot;1&quot; style=&quot;border-style: solid; font-size: 16px;&quot;&gt;&lt;p style=&quot;margin: 0px 0px 0px 4px; font-size: 16px;&quot;&gt;&lt;font style=&quot;font-size: 16px;&quot; face=&quot;xAE-VI2CncsVPKAGbfvw&quot;&gt;&lt;br&gt;&lt;/font&gt;&lt;/p&gt;&lt;hr size=&quot;1&quot; style=&quot;border-style: solid; font-size: 16px;&quot;&gt;&lt;p style=&quot;margin: 0px 0px 0px 4px; font-size: 16px;&quot;&gt;&lt;font style=&quot;font-size: 16px;&quot;&gt;&lt;font face=&quot;Verdana&quot;&gt;&amp;nbsp;+ ligar(String numero)&lt;/font&gt;&lt;/font&gt;&lt;span style=&quot;font-family: Verdana; background-color: initial;&quot;&gt;:void&lt;/span&gt;&lt;span style=&quot;font-family: xyTU4eiPGQvbvQW_vJzR; white-space-collapse: break-spaces; background-color: initial;&quot;&gt; &lt;/span&gt;&lt;/p&gt;&lt;p style=&quot;margin: 0px 0px 0px 4px; font-size: 16px;&quot;&gt;&lt;font style=&quot;font-size: 16px;&quot;&gt;&lt;code style=&quot;box-sizing: border-box; padding: 0.2em 0.4em; margin: 0px; white-space-collapse: break-spaces; border-radius: 6px;&quot;&gt;&lt;font face=&quot;Verdana&quot;&gt;+ atender () &lt;/font&gt;&lt;/code&gt;&lt;/font&gt;&lt;span style=&quot;font-family: Verdana; background-color: initial;&quot;&gt;:void&lt;/span&gt;&lt;/p&gt;&lt;p style=&quot;margin: 0px 0px 0px 4px; font-size: 16px;&quot;&gt;&lt;font style=&quot;font-size: 16px;&quot;&gt;&lt;code style=&quot;box-sizing: border-box; padding: 0.2em 0.4em; margin: 0px; white-space-collapse: break-spaces; border-radius: 6px;&quot;&gt;&lt;font face=&quot;Verdana&quot;&gt;+ &lt;/font&gt;&lt;font face=&quot;Verdana&quot;&gt;iniciarCorreioDeVoz()&lt;/font&gt;&lt;/code&gt;&lt;/font&gt;&lt;span style=&quot;font-family: Verdana; background-color: initial;&quot;&gt;:void&lt;/span&gt;&lt;/p&gt;&lt;p style=&quot;margin: 0px 0px 0px 4px; font-size: 16px;&quot;&gt;&lt;font face=&quot;Verdana&quot; style=&quot;font-size: 16px;&quot;&gt;&lt;code style=&quot;box-sizing: border-box; padding: 0.2em 0.4em; margin: 0px; white-space-collapse: break-spaces; border-radius: 6px;&quot;&gt;+ &lt;font face=&quot;Verdana&quot;&gt;buscarContatoLigando(String nome)&lt;/font&gt;&lt;/code&gt;&lt;/font&gt;&lt;span style=&quot;font-family: Verdana; background-color: initial;&quot;&gt;:void&lt;/span&gt;&lt;/p&gt;&lt;p style=&quot;margin: 0px 0px 0px 4px; font-size: 16px;&quot;&gt;&lt;br&gt;&lt;/p&gt;" style="verticalAlign=top;align=left;overflow=fill;html=1;whiteSpace=wrap;labelBackgroundColor=none;fillStyle=auto;rounded=1;fillColor=#FAE5C7;strokeColor=#0F8B8D;fontColor=#143642;" vertex="1" parent="1">
          <mxGeometry x="-720" y="75" width="535" height="192" as="geometry" />
        </mxCell>
        <mxCell id="idi1RiN6j2gegVWpK_ZE-2" value="&lt;p style=&quot;margin: 4px 0px 0px; text-align: center; font-size: 16px;&quot;&gt;&lt;font face=&quot;Verdana&quot; style=&quot;font-size: 16px;&quot;&gt;&lt;i style=&quot;&quot;&gt;&amp;lt;&amp;lt;Interface&amp;gt;&amp;gt;&lt;/i&gt;&lt;br&gt;&lt;b style=&quot;&quot;&gt;Ipode&lt;/b&gt;&lt;/font&gt;&lt;/p&gt;&lt;hr size=&quot;1&quot; style=&quot;border-style: solid; font-size: 16px;&quot;&gt;&lt;p style=&quot;margin: 0px 0px 0px 4px; font-size: 16px;&quot;&gt;&lt;font style=&quot;font-size: 16px;&quot; face=&quot;Y1bQobDuCJ2-JDGMQ-gY&quot;&gt;&lt;br&gt;&lt;/font&gt;&lt;/p&gt;&lt;hr size=&quot;1&quot; style=&quot;border-style: solid; font-size: 16px;&quot;&gt;&lt;p style=&quot;margin: 0px 0px 0px 4px; font-size: 16px;&quot;&gt;&lt;font style=&quot;font-size: 16px;&quot;&gt;&lt;code style=&quot;box-sizing: border-box; padding: 0.2em 0.4em; margin: 0px; white-space-collapse: break-spaces; border-radius: 6px;&quot;&gt;&lt;font face=&quot;Verdana&quot;&gt;+ &lt;/font&gt;&lt;font face=&quot;Verdana&quot;&gt;tocar&lt;/font&gt;&lt;font face=&quot;Verdana&quot;&gt;():void&lt;/font&gt;&lt;/code&gt;&lt;/font&gt;&lt;/p&gt;&lt;p style=&quot;margin: 0px 0px 0px 4px; font-size: 16px;&quot;&gt;&lt;font face=&quot;Verdana&quot; style=&quot;font-size: 16px;&quot;&gt;&amp;nbsp;+ pausar():void&lt;/font&gt;&lt;/p&gt;&lt;p style=&quot;margin: 0px 0px 0px 4px; font-size: 16px;&quot;&gt;&lt;font face=&quot;Verdana&quot; style=&quot;font-size: 16px;&quot;&gt;&amp;nbsp;&lt;/font&gt;&lt;font face=&quot;Verdana&quot; style=&quot;font-size: 16px;&quot;&gt;+&lt;/font&gt;&lt;font face=&quot;Verdana&quot; style=&quot;font-size: 16px;&quot;&gt;&amp;nbsp;selecionarMusica (String nomeMusica&lt;span style=&quot;white-space-collapse: break-spaces;&quot;&gt;)&lt;/span&gt;&lt;/font&gt;&lt;span style=&quot;font-family: Verdana; background-color: initial;&quot;&gt;:void&lt;/span&gt;&lt;br&gt;&lt;/p&gt;" style="verticalAlign=top;align=left;overflow=fill;html=1;whiteSpace=wrap;labelBackgroundColor=none;rounded=1;fillColor=#FAE5C7;strokeColor=#0F8B8D;fontColor=#143642;" vertex="1" parent="1">
          <mxGeometry x="-720" y="304" width="535" height="202" as="geometry" />
        </mxCell>
        <mxCell id="idi1RiN6j2gegVWpK_ZE-3" value="&lt;p style=&quot;margin: 4px 0px 0px; text-align: center; font-size: 16px;&quot;&gt;&lt;font face=&quot;Verdana&quot; style=&quot;font-size: 16px;&quot;&gt;&lt;i style=&quot;&quot;&gt;&amp;lt;&amp;lt;Interface&amp;gt;&amp;gt;&lt;/i&gt;&lt;br&gt;&lt;b style=&quot;&quot;&gt;Navegador&lt;/b&gt;&lt;/font&gt;&lt;/p&gt;&lt;hr size=&quot;1&quot; style=&quot;border-style: solid; font-size: 16px;&quot;&gt;&lt;p style=&quot;margin: 0px 0px 0px 4px; font-size: 16px;&quot;&gt;&lt;font face=&quot;KDs0SnJjhC__-0Q-LHOO&quot; style=&quot;font-size: 16px;&quot;&gt;&lt;br&gt;&lt;/font&gt;&lt;/p&gt;&lt;hr size=&quot;1&quot; style=&quot;border-style: solid; font-size: 16px;&quot;&gt;&lt;p style=&quot;margin: 0px 0px 0px 4px; font-size: 16px;&quot;&gt;&lt;code style=&quot;box-sizing: border-box; padding: 0.2em 0.4em; margin: 0px; white-space-collapse: break-spaces; border-radius: 6px;&quot;&gt;&lt;font style=&quot;font-size: 16px;&quot;&gt;&lt;font style=&quot;font-family: KDs0SnJjhC__-0Q-LHOO; font-size: 16px;&quot;&gt;+  &lt;/font&gt;&lt;font face=&quot;Verdana&quot; style=&quot;font-size: 16px;&quot;&gt;exibirPagina(String url):void&lt;/font&gt;&lt;/font&gt;&lt;/code&gt;&lt;/p&gt;&lt;p style=&quot;margin: 0px 0px 0px 4px;&quot;&gt;&lt;font style=&quot;&quot;&gt;&lt;font style=&quot;font-size: 16px;&quot; face=&quot;KDs0SnJjhC__-0Q-LHOO&quot;&gt;&amp;nbsp;+&lt;/font&gt;&lt;code style=&quot;box-sizing: border-box; padding: 0.2em 0.4em; margin: 0px; white-space-collapse: break-spaces; border-radius: 6px;&quot;&gt;&lt;font style=&quot;font-size: 16px;&quot; face=&quot;Verdana&quot;&gt;adicionarNovaAba():void&lt;/font&gt;&lt;/code&gt;&lt;/font&gt;&lt;/p&gt;&lt;p style=&quot;margin: 0px 0px 0px 4px; font-size: 16px;&quot;&gt;&lt;font style=&quot;font-size: 16px;&quot;&gt;&lt;span style=&quot;white-space-collapse: break-spaces;&quot;&gt;&lt;font face=&quot;KDs0SnJjhC__-0Q-LHOO&quot;&gt; + &lt;/font&gt;&lt;font face=&quot;Verdana&quot;&gt;atualizarPagina():void&lt;/font&gt;&lt;/span&gt;&lt;/font&gt;&lt;/p&gt;" style="verticalAlign=top;align=left;overflow=fill;html=1;whiteSpace=wrap;labelBackgroundColor=none;rounded=1;fillColor=#FAE5C7;strokeColor=#0F8B8D;fontColor=#143642;" vertex="1" parent="1">
          <mxGeometry x="-720" y="543" width="535" height="176" as="geometry" />
        </mxCell>
        <mxCell id="idi1RiN6j2gegVWpK_ZE-4" value="&lt;h5 style=&quot;margin:0px;margin-top:4px;text-align:center;&quot;&gt;&lt;b&gt;&lt;font face=&quot;Verdana&quot; style=&quot;font-size: 18px;&quot;&gt;Iphone&lt;/font&gt;&lt;/b&gt;&lt;/h5&gt;&lt;hr size=&quot;1&quot; style=&quot;border-style:solid;&quot;&gt;&lt;p style=&quot;margin:0px;margin-left:4px;&quot;&gt;&lt;font style=&quot;font-size: 14px;&quot; face=&quot;Verdana&quot;&gt;&lt;br&gt;&lt;/font&gt;&lt;/p&gt;&lt;hr size=&quot;1&quot; style=&quot;border-style:solid;&quot;&gt;&lt;p style=&quot;margin: 0px 0px 0px 4px; line-height: 180%; font-size: 16px;&quot;&gt;&lt;font style=&quot;font-size: 16px; font-family: Verdana;&quot;&gt;&amp;nbsp;&lt;/font&gt;&lt;font style=&quot;font-size: 16px;&quot;&gt;&lt;font face=&quot;Verdana&quot;&gt;+&amp;nbsp;&lt;/font&gt;&lt;code style=&quot;box-sizing: border-box; padding: 0.2em 0.4em; margin: 0px; white-space-collapse: break-spaces; border-radius: 6px;&quot;&gt;&lt;font face=&quot;Verdana&quot;&gt;ligar(String numero):void&lt;/font&gt;&lt;/code&gt;&lt;/font&gt;&lt;/p&gt;&lt;p style=&quot;margin: 0px 0px 0px 4px; line-height: 180%; font-size: 16px;&quot;&gt;&lt;font face=&quot;Fhc9H4xbXG66azeW2wKI&quot; style=&quot;font-size: 16px;&quot;&gt;&amp;nbsp;&lt;/font&gt;&lt;font style=&quot;font-size: 16px;&quot;&gt;&lt;font face=&quot;Verdana&quot;&gt;+&amp;nbsp;&lt;/font&gt;&lt;code style=&quot;white-space-collapse: break-spaces; box-sizing: border-box; padding: 0.2em 0.4em; margin: 0px; border-radius: 6px;&quot;&gt;&lt;font face=&quot;Verdana&quot;&gt;atender()&lt;/font&gt;&lt;/code&gt;&lt;/font&gt;&lt;span style=&quot;font-family: Verdana; background-color: initial;&quot;&gt;:void&lt;/span&gt;&lt;/p&gt;&lt;p style=&quot;margin: 0px 0px 0px 4px; line-height: 180%; font-size: 16px;&quot;&gt;&lt;font style=&quot;font-size: 16px;&quot;&gt;&lt;font face=&quot;Fhc9H4xbXG66azeW2wKI&quot;&gt;&amp;nbsp;+&amp;nbsp;&lt;/font&gt;&lt;code style=&quot;box-sizing: border-box; padding: 0.2em 0.4em; margin: 0px; white-space-collapse: break-spaces; border-radius: 6px;&quot;&gt;&lt;font face=&quot;Verdana&quot;&gt;iniciarCorreioVoz()&lt;/font&gt;&lt;/code&gt;&lt;/font&gt;&lt;span style=&quot;font-family: Verdana; background-color: initial;&quot;&gt;:void&lt;/span&gt;&lt;/p&gt;&lt;p style=&quot;margin: 0px 0px 0px 4px; line-height: 180%; font-size: 16px;&quot;&gt;&lt;font face=&quot;Fhc9H4xbXG66azeW2wKI&quot;&gt;&amp;nbsp;+&lt;/font&gt;&lt;font face=&quot;Verdana&quot;&gt;&amp;nbsp; buscarContatoLigando&lt;/font&gt;&lt;code style=&quot;box-sizing: border-box; padding: 0.2em 0.4em; margin: 0px; white-space-collapse: break-spaces; border-radius: 6px;&quot;&gt;&lt;font face=&quot;Verdana&quot;&gt;(String nome)&lt;/font&gt;&lt;/code&gt;&lt;span style=&quot;background-color: initial; font-family: Verdana;&quot;&gt;:void&lt;/span&gt;&lt;span style=&quot;font-family: Verdana; background-color: initial;&quot;&gt;&lt;br&gt;&lt;/span&gt;&lt;/p&gt;&lt;p style=&quot;margin: 0px 0px 0px 4px; line-height: 180%; font-size: 16px;&quot;&gt;&lt;code style=&quot;box-sizing: border-box; padding: 0.2em 0.4em; margin: 0px; white-space-collapse: break-spaces; border-radius: 6px;&quot;&gt;&lt;font face=&quot;Verdana&quot; style=&quot;font-size: 16px;&quot;&gt;+ tocar() :void&lt;/font&gt;&lt;/code&gt;&lt;/p&gt;&lt;p style=&quot;margin: 0px 0px 0px 4px; line-height: 180%; font-size: 16px;&quot;&gt;&lt;span style=&quot;background-color: initial;&quot;&gt;&lt;font face=&quot;qTCwpt_KoPQ2aC5wIiig&quot; style=&quot;font-size: 16px;&quot;&gt;&amp;nbsp;&lt;/font&gt;&lt;font face=&quot;Verdana&quot; style=&quot;font-size: 16px;&quot;&gt;+ pausar()&lt;/font&gt;&lt;/span&gt;&lt;span style=&quot;font-family: Verdana; white-space-collapse: break-spaces; background-color: initial;&quot;&gt;:void&lt;/span&gt;&lt;/p&gt;&lt;p style=&quot;margin: 0px 0px 0px 4px; line-height: 180%; font-size: 16px;&quot;&gt;&lt;font face=&quot;Fhc9H4xbXG66azeW2wKI&quot; style=&quot;font-size: 16px;&quot;&gt;&amp;nbsp;+&lt;/font&gt;&lt;font face=&quot;Verdana&quot; style=&quot;font-size: 16px;&quot;&gt;&amp;nbsp; selecionarMusica (String nomeMusica&lt;span style=&quot;white-space-collapse: break-spaces;&quot;&gt;)&lt;/span&gt;&lt;/font&gt;&lt;span style=&quot;font-family: Verdana; white-space-collapse: break-spaces; background-color: initial;&quot;&gt;:void&lt;/span&gt;&lt;/p&gt;&lt;p style=&quot;margin: 0px 0px 0px 4px; line-height: 180%; font-size: 16px;&quot;&gt;&lt;code style=&quot;box-sizing: border-box; padding: 0.2em 0.4em; margin: 0px; white-space-collapse: break-spaces; border-radius: 6px;&quot;&gt;&lt;font face=&quot;Fhc9H4xbXG66azeW2wKI&quot; style=&quot;font-size: 16px;&quot;&gt;+&lt;/font&gt;&lt;font face=&quot;Verdana&quot; style=&quot;font-size: 16px;&quot;&gt; exibirPagina(String url)&lt;/font&gt;&lt;/code&gt;&lt;span style=&quot;font-family: Verdana; white-space-collapse: break-spaces; background-color: initial;&quot;&gt;:void&lt;/span&gt;&lt;/p&gt;&lt;p style=&quot;margin: 0px 0px 0px 4px; line-height: 180%; font-size: 16px;&quot;&gt;&lt;font style=&quot;font-size: 16px;&quot;&gt;&lt;font face=&quot;Fhc9H4xbXG66azeW2wKI&quot;&gt;&amp;nbsp;+&lt;/font&gt;&lt;code style=&quot;box-sizing: border-box; padding: 0.2em 0.4em; margin: 0px; white-space-collapse: break-spaces; border-radius: 6px;&quot;&gt;&lt;font face=&quot;Verdana&quot;&gt;adicionarNovaAba()&lt;/font&gt;&lt;font face=&quot;Fhc9H4xbXG66azeW2wKI&quot;&gt; &lt;/font&gt;&lt;/code&gt;&lt;/font&gt;&lt;span style=&quot;font-family: Verdana; white-space-collapse: break-spaces; background-color: initial;&quot;&gt;void&lt;/span&gt;&lt;/p&gt;&lt;p style=&quot;margin: 0px 0px 0px 4px; line-height: 180%; font-size: 16px;&quot;&gt;&lt;font style=&quot;font-size: 16px;&quot;&gt;&lt;span style=&quot;white-space-collapse: break-spaces;&quot;&gt;&lt;font face=&quot;Fhc9H4xbXG66azeW2wKI&quot;&gt; +&lt;/font&gt;&lt;font face=&quot;Verdana&quot;&gt; atualizarPagina()&lt;/font&gt;&lt;/span&gt;&lt;/font&gt;&lt;span style=&quot;font-family: Verdana; white-space-collapse: break-spaces; background-color: initial;&quot;&gt;:void&lt;/span&gt;&lt;/p&gt;" style="verticalAlign=top;align=left;overflow=fill;html=1;whiteSpace=wrap;labelBackgroundColor=none;rounded=1;fillColor=#FAE5C7;strokeColor=#0F8B8D;fontColor=#143642;" vertex="1" parent="1">
          <mxGeometry x="114" y="240" width="437" height="459" as="geometry" />
        </mxCell>
        <mxCell id="idi1RiN6j2gegVWpK_ZE-5" value="" style="endArrow=block;dashed=1;endFill=0;endSize=12;html=1;rounded=1;exitX=0;exitY=0.5;exitDx=0;exitDy=0;entryX=1;entryY=0.5;entryDx=0;entryDy=0;labelBackgroundColor=none;fontColor=default;strokeColor=#A8201A;" edge="1" parent="1" source="idi1RiN6j2gegVWpK_ZE-4" target="idi1RiN6j2gegVWpK_ZE-3">
          <mxGeometry width="160" relative="1" as="geometry">
            <mxPoint x="440" y="629.6493023255814" as="sourcePoint" />
            <mxPoint x="269.9999999999999" y="599.9981395348836" as="targetPoint" />
          </mxGeometry>
        </mxCell>
        <mxCell id="idi1RiN6j2gegVWpK_ZE-6" value="" style="endArrow=block;dashed=1;endFill=0;endSize=12;html=1;rounded=1;entryX=1;entryY=0.5;entryDx=0;entryDy=0;exitX=0;exitY=0.5;exitDx=0;exitDy=0;labelBackgroundColor=none;fontColor=default;strokeColor=#A8201A;" edge="1" parent="1" source="idi1RiN6j2gegVWpK_ZE-4" target="idi1RiN6j2gegVWpK_ZE-2">
          <mxGeometry width="160" relative="1" as="geometry">
            <mxPoint x="460" y="380.6493023255814" as="sourcePoint" />
            <mxPoint x="260" y="360" as="targetPoint" />
          </mxGeometry>
        </mxCell>
        <mxCell id="idi1RiN6j2gegVWpK_ZE-7" value="" style="endArrow=block;dashed=1;endFill=0;endSize=12;html=1;rounded=1;entryX=1;entryY=0.5;entryDx=0;entryDy=0;exitX=0;exitY=0.5;exitDx=0;exitDy=0;labelBackgroundColor=none;fontColor=default;strokeColor=#A8201A;" edge="1" parent="1" source="idi1RiN6j2gegVWpK_ZE-4" target="idi1RiN6j2gegVWpK_ZE-1">
          <mxGeometry width="160" relative="1" as="geometry">
            <mxPoint x="420" y="199.99930232558143" as="sourcePoint" />
            <mxPoint x="210" y="179.35000000000002" as="targetPoint" />
          </mxGeometry>
        </mxCell>
        <mxCell id="idi1RiN6j2gegVWpK_ZE-9" value="" style="endArrow=block;dashed=1;endFill=0;endSize=12;html=1;rounded=0;strokeColor=#A8201A;fontColor=#143642;fillColor=#FAE5C7;entryX=1;entryY=0.5;entryDx=0;entryDy=0;exitX=0;exitY=0.5;exitDx=0;exitDy=0;" edge="1" parent="1" source="idi1RiN6j2gegVWpK_ZE-4" target="idi1RiN6j2gegVWpK_ZE-10">
          <mxGeometry width="160" relative="1" as="geometry">
            <mxPoint x="413" y="555" as="sourcePoint" />
            <mxPoint x="306" y="811.5" as="targetPoint" />
          </mxGeometry>
        </mxCell>
        <mxCell id="idi1RiN6j2gegVWpK_ZE-10" value="&lt;p style=&quot;margin: 4px 0px 0px; text-align: center; font-size: 16px;&quot;&gt;&lt;font style=&quot;font-size: 16px;&quot;&gt;&lt;i style=&quot;font-family: Verdana;&quot;&gt;&amp;lt;&amp;lt;Interface&amp;gt;&amp;gt;&lt;/i&gt;&lt;br&gt;&lt;b style=&quot;&quot;&gt;&lt;font face=&quot;Verdana&quot;&gt;AgendaTelefonica&lt;/font&gt;&lt;/b&gt;&lt;/font&gt;&lt;/p&gt;&lt;hr size=&quot;1&quot; style=&quot;border-style: solid; font-size: 16px;&quot;&gt;&lt;p style=&quot;margin: 0px 0px 0px 4px; font-size: 16px;&quot;&gt;&lt;font face=&quot;KDs0SnJjhC__-0Q-LHOO&quot; style=&quot;font-size: 16px;&quot;&gt;&lt;br&gt;&lt;/font&gt;&lt;/p&gt;&lt;hr size=&quot;1&quot; style=&quot;border-style: solid; font-size: 16px;&quot;&gt;&lt;p style=&quot;margin: 0px 0px 0px 4px; font-size: 16px;&quot;&gt;&lt;code style=&quot;box-sizing: border-box; padding: 0.2em 0.4em; margin: 0px; white-space-collapse: break-spaces; border-radius: 6px;&quot;&gt;&lt;font style=&quot;font-size: 16px;&quot;&gt;&lt;font style=&quot;font-family: KDs0SnJjhC__-0Q-LHOO; font-size: 16px;&quot;&gt;+  &lt;/font&gt;&lt;font face=&quot;Verdana&quot; style=&quot;font-size: 16px;&quot;&gt;salvarContato(String nome, String numero):void&lt;/font&gt;&lt;/font&gt;&lt;/code&gt;&lt;/p&gt;&lt;p style=&quot;margin: 0px 0px 0px 4px; font-size: 16px;&quot;&gt;&lt;code style=&quot;box-sizing: border-box; padding: 0.2em 0.4em; margin: 0px; white-space-collapse: break-spaces; border-radius: 6px;&quot;&gt;&lt;font style=&quot;font-size: 16px;&quot;&gt;&lt;font style=&quot;font-family: KDs0SnJjhC__-0Q-LHOO;&quot;&gt;+  &lt;/font&gt;&lt;font face=&quot;Verdana&quot;&gt;buscarContato(String nome):void&lt;/font&gt;&lt;font face=&quot;Verdana&quot; style=&quot;font-size: 16px;&quot;&gt;&lt;br&gt;&lt;/font&gt;&lt;/font&gt;&lt;/code&gt;&lt;/p&gt;&lt;p style=&quot;margin: 0px 0px 0px 4px;&quot;&gt;&lt;font style=&quot;&quot;&gt;&lt;font style=&quot;font-size: 16px;&quot; face=&quot;KDs0SnJjhC__-0Q-LHOO&quot;&gt;&amp;nbsp;+&lt;/font&gt;&lt;code style=&quot;box-sizing: border-box; padding: 0.2em 0.4em; margin: 0px; white-space-collapse: break-spaces; border-radius: 6px;&quot;&gt;&lt;font style=&quot;font-size: 16px;&quot; face=&quot;Verdana&quot;&gt;editarContato():void&lt;/font&gt;&lt;/code&gt;&lt;/font&gt;&lt;/p&gt;&lt;p style=&quot;margin: 0px 0px 0px 4px; font-size: 16px;&quot;&gt;&lt;font style=&quot;font-size: 16px;&quot;&gt;&lt;span style=&quot;white-space-collapse: break-spaces;&quot;&gt;&lt;font face=&quot;KDs0SnJjhC__-0Q-LHOO&quot;&gt; + &lt;/font&gt;&lt;font face=&quot;Verdana&quot;&gt;apagarContato():void&lt;/font&gt;&lt;/span&gt;&lt;/font&gt;&lt;/p&gt;" style="verticalAlign=top;align=left;overflow=fill;html=1;whiteSpace=wrap;labelBackgroundColor=none;rounded=1;fillColor=#FAE5C7;strokeColor=#0F8B8D;fontColor=#143642;" vertex="1" parent="1">
          <mxGeometry x="-720" y="756" width="535" height="197" as="geometry" />
        </mxCell>
      </root>
    </mxGraphModel>
  </diagram>
</mxfile>
